<svg xmlns="http://www.w3.org/2000/svg" viewBox="0 0 84 42" width="84" height="42" shape-rendering="crispEdges"><title>Skeddy Goblin</title><rect x="0" y="0" width="84" height="42" fill="#14121c"/><rect x="26" y="5" width="3" height="1" fill="#1b1420"/><rect x="25" y="6" width="1" height="1" fill="#1b1420"/><rect x="26" y="6" width="2" height="1" fill="#7d5fd6"/><rect x="28" y="6" width="1" height="1" fill="#3b2a63"/><rect x="29" y="6" width="1" height="1" fill="#1b1420"/><rect x="17" y="7" width="8" height="1" fill="#1b1420"/><rect x="25" y="7" width="3" height="1" fill="#7d5fd6"/><rect x="28" y="7" width="2" height="1" fill="#3b2a63"/><rect x="30" y="7" width="1" height="1" fill="#1b1420"/><rect x="15" y="8" width="2" height="1" fill="#1b1420"/><rect x="17" y="8" width="10" height="1" fill="#7d5fd6"/><rect x="27" y="8" width="2" height="1" fill="#3b2a63"/><rect x="29" y="8" width="2" height="1" fill="#1b1420"/><rect x="14" y="9" width="1" height="1" fill="#1b1420"/><rect x="15" y="9" width="1" height="1" fill="#3b2a63"/><rect x="16" y="9" width="10" height="1" fill="#7d5fd6"/><rect x="26" y="9" width="1" height="1" fill="#3b2a63"/><rect x="27" y="9" width="3" height="1" fill="#1b1420"/><rect x="13" y="10" width="1" height="1" fill="#1b1420"/><rect x="14" y="10" width="1" height="1" fill="#3b2a63"/><rect x="15" y="10" width="7" height="1" fill="#7d5fd6"/><rect x="22" y="10" width="5" height="1" fill="#5b3fa8"/><rect x="27" y="10" width="1" height="1" fill="#3b2a63"/><rect x="28" y="10" width="1" height="1" fill="#1b1420"/><rect x="12" y="11" width="1" height="1" fill="#1b1420"/><rect x="13" y="11" width="1" height="1" fill="#3b2a63"/><rect x="14" y="11" width="5" height="1" fill="#7d5fd6"/><rect x="19" y="11" width="9" height="1" fill="#5b3fa8"/><rect x="28" y="11" width="1" height="1" fill="#3b2a63"/><rect x="29" y="11" width="1" height="1" fill="#1b1420"/><rect x="11" y="12" width="1" height="1" fill="#1b1420"/><rect x="12" y="12" width="1" height="1" fill="#3b2a63"/><rect x="13" y="12" width="5" height="1" fill="#7d5fd6"/><rect x="18" y="12" width="11" height="1" fill="#5b3fa8"/><rect x="29" y="12" width="1" height="1" fill="#3b2a63"/><rect x="30" y="12" width="1" height="1" fill="#1b1420"/><rect x="44" y="12" width="4" height="1" fill="#ffe79a"/><rect x="49" y="12" width="1" height="1" fill="#ffe79a"/><rect x="53" y="12" width="1" height="1" fill="#ffe79a"/><rect x="55" y="12" width="5" height="1" fill="#ffe79a"/><rect x="61" y="12" width="4" height="1" fill="#ffe79a"/><rect x="67" y="12" width="4" height="1" fill="#ffe79a"/><rect x="73" y="12" width="1" height="1" fill="#ffe79a"/><rect x="77" y="12" width="1" height="1" fill="#ffe79a"/><rect x="11" y="13" width="1" height="1" fill="#1b1420"/><rect x="12" y="13" width="1" height="1" fill="#3b2a63"/><rect x="13" y="13" width="4" height="1" fill="#7d5fd6"/><rect x="17" y="13" width="12" height="1" fill="#5b3fa8"/><rect x="29" y="13" width="1" height="1" fill="#3b2a63"/><rect x="30" y="13" width="1" height="1" fill="#1b1420"/><rect x="43" y="13" width="1" height="1" fill="#ffe79a"/><rect x="45" y="13" width="4" height="1" fill="#1b1420"/><rect x="49" y="13" width="1" height="1" fill="#ffe79a"/><rect x="50" y="13" width="1" height="1" fill="#1b1420"/><rect x="52" y="13" width="1" height="1" fill="#ffe79a"/><rect x="54" y="13" width="1" height="1" fill="#1b1420"/><rect x="55" y="13" width="1" height="1" fill="#ffe79a"/><rect x="56" y="13" width="5" height="1" fill="#1b1420"/><rect x="61" y="13" width="1" height="1" fill="#ffe79a"/><rect x="62" y="13" width="3" height="1" fill="#1b1420"/><rect x="65" y="13" width="1" height="1" fill="#ffe79a"/><rect x="67" y="13" width="1" height="1" fill="#ffe79a"/><rect x="68" y="13" width="3" height="1" fill="#1b1420"/><rect x="71" y="13" width="1" height="1" fill="#ffe79a"/><rect x="73" y="13" width="1" height="1" fill="#ffe79a"/><rect x="74" y="13" width="1" height="1" fill="#1b1420"/><rect x="77" y="13" width="1" height="1" fill="#ffe79a"/><rect x="78" y="13" width="1" height="1" fill="#1b1420"/><rect x="10" y="14" width="1" height="1" fill="#1b1420"/><rect x="11" y="14" width="1" height="1" fill="#3b2a63"/><rect x="12" y="14" width="4" height="1" fill="#7d5fd6"/><rect x="16" y="14" width="14" height="1" fill="#5b3fa8"/><rect x="30" y="14" width="1" height="1" fill="#3b2a63"/><rect x="31" y="14" width="1" height="1" fill="#1b1420"/><rect x="43" y="14" width="1" height="1" fill="#ffe79a"/><rect x="44" y="14" width="1" height="1" fill="#1b1420"/><rect x="49" y="14" width="1" height="1" fill="#ffe79a"/><rect x="50" y="14" width="1" height="1" fill="#1b1420"/><rect x="51" y="14" width="1" height="1" fill="#ffe79a"/><rect x="53" y="14" width="1" height="1" fill="#1b1420"/><rect x="55" y="14" width="1" height="1" fill="#ffe79a"/><rect x="56" y="14" width="1" height="1" fill="#1b1420"/><rect x="61" y="14" width="1" height="1" fill="#ffe79a"/><rect x="62" y="14" width="1" height="1" fill="#1b1420"/><rect x="65" y="14" width="1" height="1" fill="#ffe79a"/><rect x="66" y="14" width="1" height="1" fill="#1b1420"/><rect x="67" y="14" width="1" height="1" fill="#ffe79a"/><rect x="68" y="14" width="1" height="1" fill="#1b1420"/><rect x="71" y="14" width="1" height="1" fill="#ffe79a"/><rect x="72" y="14" width="1" height="1" fill="#1b1420"/><rect x="74" y="14" width="1" height="1" fill="#ffe79a"/><rect x="76" y="14" width="1" height="1" fill="#ffe79a"/><rect x="78" y="14" width="1" height="1" fill="#1b1420"/><rect x="10" y="15" width="1" height="1" fill="#1b1420"/><rect x="11" y="15" width="20" height="1" fill="#3b2a63"/><rect x="31" y="15" width="1" height="1" fill="#1b1420"/><rect x="44" y="15" width="3" height="1" fill="#ffe79a"/><rect x="49" y="15" width="2" height="1" fill="#ffe79a"/><rect x="52" y="15" width="1" height="1" fill="#1b1420"/><rect x="55" y="15" width="4" height="1" fill="#ffe79a"/><rect x="61" y="15" width="1" height="1" fill="#ffe79a"/><rect x="62" y="15" width="1" height="1" fill="#1b1420"/><rect x="65" y="15" width="1" height="1" fill="#ffe79a"/><rect x="66" y="15" width="1" height="1" fill="#1b1420"/><rect x="67" y="15" width="1" height="1" fill="#ffe79a"/><rect x="68" y="15" width="1" height="1" fill="#1b1420"/><rect x="71" y="15" width="1" height="1" fill="#ffe79a"/><rect x="72" y="15" width="1" height="1" fill="#1b1420"/><rect x="75" y="15" width="1" height="1" fill="#ffe79a"/><rect x="77" y="15" width="1" height="1" fill="#1b1420"/><rect x="10" y="16" width="22" height="1" fill="#1b1420"/><rect x="45" y="16" width="2" height="1" fill="#1b1420"/><rect x="47" y="16" width="1" height="1" fill="#ffe79a"/><rect x="49" y="16" width="1" height="1" fill="#ffe79a"/><rect x="50" y="16" width="1" height="1" fill="#1b1420"/><rect x="51" y="16" width="1" height="1" fill="#ffe79a"/><rect x="55" y="16" width="1" height="1" fill="#ffe79a"/><rect x="56" y="16" width="4" height="1" fill="#1b1420"/><rect x="61" y="16" width="1" height="1" fill="#ffe79a"/><rect x="62" y="16" width="1" height="1" fill="#1b1420"/><rect x="65" y="16" width="1" height="1" fill="#ffe79a"/><rect x="66" y="16" width="1" height="1" fill="#1b1420"/><rect x="67" y="16" width="1" height="1" fill="#ffe79a"/><rect x="68" y="16" width="1" height="1" fill="#1b1420"/><rect x="71" y="16" width="1" height="1" fill="#ffe79a"/><rect x="72" y="16" width="1" height="1" fill="#1b1420"/><rect x="75" y="16" width="1" height="1" fill="#ffe79a"/><rect x="76" y="16" width="1" height="1" fill="#1b1420"/><rect x="13" y="17" width="1" height="1" fill="#1b1420"/><rect x="14" y="17" width="14" height="1" fill="#2f6b28"/><rect x="28" y="17" width="1" height="1" fill="#1b1420"/><rect x="47" y="17" width="1" height="1" fill="#ffe79a"/><rect x="48" y="17" width="1" height="1" fill="#1b1420"/><rect x="49" y="17" width="1" height="1" fill="#ffe79a"/><rect x="50" y="17" width="1" height="1" fill="#1b1420"/><rect x="52" y="17" width="1" height="1" fill="#ffe79a"/><rect x="55" y="17" width="1" height="1" fill="#ffe79a"/><rect x="56" y="17" width="1" height="1" fill="#1b1420"/><rect x="61" y="17" width="1" height="1" fill="#ffe79a"/><rect x="62" y="17" width="1" height="1" fill="#1b1420"/><rect x="65" y="17" width="1" height="1" fill="#ffe79a"/><rect x="66" y="17" width="1" height="1" fill="#1b1420"/><rect x="67" y="17" width="1" height="1" fill="#ffe79a"/><rect x="68" y="17" width="1" height="1" fill="#1b1420"/><rect x="71" y="17" width="1" height="1" fill="#ffe79a"/><rect x="72" y="17" width="1" height="1" fill="#1b1420"/><rect x="75" y="17" width="1" height="1" fill="#ffe79a"/><rect x="76" y="17" width="1" height="1" fill="#1b1420"/><rect x="13" y="18" width="1" height="1" fill="#1b1420"/><rect x="14" y="18" width="14" height="1" fill="#2f6b28"/><rect x="28" y="18" width="1" height="1" fill="#1b1420"/><rect x="43" y="18" width="4" height="1" fill="#ffe79a"/><rect x="48" y="18" width="1" height="1" fill="#1b1420"/><rect x="49" y="18" width="1" height="1" fill="#ffe79a"/><rect x="50" y="18" width="1" height="1" fill="#1b1420"/><rect x="53" y="18" width="1" height="1" fill="#ffe79a"/><rect x="55" y="18" width="5" height="1" fill="#ffe79a"/><rect x="61" y="18" width="4" height="1" fill="#ffe79a"/><rect x="66" y="18" width="1" height="1" fill="#1b1420"/><rect x="67" y="18" width="4" height="1" fill="#ffe79a"/><rect x="72" y="18" width="1" height="1" fill="#1b1420"/><rect x="75" y="18" width="1" height="1" fill="#ffe79a"/><rect x="76" y="18" width="1" height="1" fill="#1b1420"/><rect x="9" y="19" width="5" height="1" fill="#1b1420"/><rect x="14" y="19" width="13" height="1" fill="#57a83c"/><rect x="27" y="19" width="1" height="1" fill="#2f6b28"/><rect x="28" y="19" width="5" height="1" fill="#1b1420"/><rect x="44" y="19" width="4" height="1" fill="#1b1420"/><rect x="50" y="19" width="1" height="1" fill="#1b1420"/><rect x="54" y="19" width="1" height="1" fill="#1b1420"/><rect x="56" y="19" width="5" height="1" fill="#1b1420"/><rect x="62" y="19" width="4" height="1" fill="#1b1420"/><rect x="68" y="19" width="4" height="1" fill="#1b1420"/><rect x="76" y="19" width="1" height="1" fill="#1b1420"/><rect x="7" y="20" width="2" height="1" fill="#1b1420"/><rect x="9" y="20" width="2" height="1" fill="#8fd45c"/><rect x="11" y="20" width="4" height="1" fill="#57a83c"/><rect x="15" y="20" width="5" height="1" fill="#1b1420"/><rect x="20" y="20" width="2" height="1" fill="#57a83c"/><rect x="22" y="20" width="5" height="1" fill="#1b1420"/><rect x="27" y="20" width="1" height="1" fill="#2f6b28"/><rect x="28" y="20" width="3" height="1" fill="#57a83c"/><rect x="31" y="20" width="2" height="1" fill="#8fd45c"/><rect x="33" y="20" width="2" height="1" fill="#1b1420"/><rect x="6" y="21" width="1" height="1" fill="#1b1420"/><rect x="7" y="21" width="2" height="1" fill="#8fd45c"/><rect x="9" y="21" width="6" height="1" fill="#57a83c"/><rect x="15" y="21" width="1" height="1" fill="#1b1420"/><rect x="16" y="21" width="4" height="1" fill="#fdf6e3"/><rect x="20" y="21" width="2" height="1" fill="#57a83c"/><rect x="22" y="21" width="4" height="1" fill="#fdf6e3"/><rect x="26" y="21" width="1" height="1" fill="#1b1420"/><rect x="27" y="21" width="1" height="1" fill="#2f6b28"/><rect x="28" y="21" width="5" height="1" fill="#57a83c"/><rect x="33" y="21" width="2" height="1" fill="#8fd45c"/><rect x="35" y="21" width="1" height="1" fill="#1b1420"/><rect x="6" y="22" width="2" height="1" fill="#1b1420"/><rect x="8" y="22" width="7" height="1" fill="#57a83c"/><rect x="15" y="22" width="1" height="1" fill="#1b1420"/><rect x="16" y="22" width="1" height="1" fill="#fdf6e3"/><rect x="17" y="22" width="2" height="1" fill="#1b1420"/><rect x="19" y="22" width="1" height="1" fill="#fdf6e3"/><rect x="20" y="22" width="2" height="1" fill="#57a83c"/><rect x="22" y="22" width="1" height="1" fill="#fdf6e3"/><rect x="23" y="22" width="2" height="1" fill="#1b1420"/><rect x="25" y="22" width="1" height="1" fill="#fdf6e3"/><rect x="26" y="22" width="1" height="1" fill="#1b1420"/><rect x="27" y="22" width="1" height="1" fill="#2f6b28"/><rect x="28" y="22" width="6" height="1" fill="#57a83c"/><rect x="34" y="22" width="2" height="1" fill="#1b1420"/><rect x="8" y="23" width="2" height="1" fill="#1b1420"/><rect x="10" y="23" width="5" height="1" fill="#57a83c"/><rect x="15" y="23" width="1" height="1" fill="#1b1420"/><rect x="16" y="23" width="1" height="1" fill="#fdf6e3"/><rect x="17" y="23" width="2" height="1" fill="#1b1420"/><rect x="19" y="23" width="1" height="1" fill="#fdf6e3"/><rect x="20" y="23" width="2" height="1" fill="#57a83c"/><rect x="22" y="23" width="1" height="1" fill="#fdf6e3"/><rect x="23" y="23" width="2" height="1" fill="#1b1420"/><rect x="25" y="23" width="1" height="1" fill="#fdf6e3"/><rect x="26" y="23" width="1" height="1" fill="#1b1420"/><rect x="27" y="23" width="5" height="1" fill="#57a83c"/><rect x="32" y="23" width="2" height="1" fill="#1b1420"/><rect x="44" y="23" width="3" height="1" fill="#8fd45c"/><rect x="50" y="23" width="3" height="1" fill="#8fd45c"/><rect x="55" y="23" width="4" height="1" fill="#8fd45c"/><rect x="61" y="23" width="1" height="1" fill="#8fd45c"/><rect x="67" y="23" width="5" height="1" fill="#8fd45c"/><rect x="73" y="23" width="1" height="1" fill="#8fd45c"/><rect x="77" y="23" width="1" height="1" fill="#8fd45c"/><rect x="10" y="24" width="2" height="1" fill="#1b1420"/><rect x="12" y="24" width="3" height="1" fill="#57a83c"/><rect x="15" y="24" width="5" height="1" fill="#1b1420"/><rect x="20" y="24" width="2" height="1" fill="#57a83c"/><rect x="22" y="24" width="5" height="1" fill="#1b1420"/><rect x="27" y="24" width="1" height="1" fill="#2f6b28"/><rect x="28" y="24" width="2" height="1" fill="#57a83c"/><rect x="30" y="24" width="2" height="1" fill="#1b1420"/><rect x="43" y="24" width="1" height="1" fill="#8fd45c"/><rect x="45" y="24" width="2" height="1" fill="#1b1420"/><rect x="47" y="24" width="1" height="1" fill="#8fd45c"/><rect x="49" y="24" width="1" height="1" fill="#8fd45c"/><rect x="51" y="24" width="2" height="1" fill="#1b1420"/><rect x="53" y="24" width="1" height="1" fill="#8fd45c"/><rect x="55" y="24" width="1" height="1" fill="#8fd45c"/><rect x="56" y="24" width="3" height="1" fill="#1b1420"/><rect x="59" y="24" width="1" height="1" fill="#8fd45c"/><rect x="61" y="24" width="1" height="1" fill="#8fd45c"/><rect x="62" y="24" width="1" height="1" fill="#1b1420"/><rect x="68" y="24" width="1" height="1" fill="#1b1420"/><rect x="69" y="24" width="1" height="1" fill="#8fd45c"/><rect x="70" y="24" width="3" height="1" fill="#1b1420"/><rect x="73" y="24" width="2" height="1" fill="#8fd45c"/><rect x="77" y="24" width="1" height="1" fill="#8fd45c"/><rect x="78" y="24" width="1" height="1" fill="#1b1420"/><rect x="12" y="25" width="2" height="1" fill="#1b1420"/><rect x="14" y="25" width="6" height="1" fill="#57a83c"/><rect x="20" y="25" width="2" height="1" fill="#2f6b28"/><rect x="22" y="25" width="5" height="1" fill="#57a83c"/><rect x="27" y="25" width="1" height="1" fill="#2f6b28"/><rect x="28" y="25" width="2" height="1" fill="#1b1420"/><rect x="43" y="25" width="1" height="1" fill="#8fd45c"/><rect x="44" y="25" width="1" height="1" fill="#1b1420"/><rect x="48" y="25" width="1" height="1" fill="#1b1420"/><rect x="49" y="25" width="1" height="1" fill="#8fd45c"/><rect x="50" y="25" width="1" height="1" fill="#1b1420"/><rect x="53" y="25" width="1" height="1" fill="#8fd45c"/><rect x="54" y="25" width="1" height="1" fill="#1b1420"/><rect x="55" y="25" width="1" height="1" fill="#8fd45c"/><rect x="56" y="25" width="1" height="1" fill="#1b1420"/><rect x="59" y="25" width="1" height="1" fill="#8fd45c"/><rect x="60" y="25" width="1" height="1" fill="#1b1420"/><rect x="61" y="25" width="1" height="1" fill="#8fd45c"/><rect x="62" y="25" width="1" height="1" fill="#1b1420"/><rect x="69" y="25" width="1" height="1" fill="#8fd45c"/><rect x="70" y="25" width="1" height="1" fill="#1b1420"/><rect x="73" y="25" width="2" height="1" fill="#8fd45c"/><rect x="75" y="25" width="1" height="1" fill="#1b1420"/><rect x="77" y="25" width="1" height="1" fill="#8fd45c"/><rect x="78" y="25" width="1" height="1" fill="#1b1420"/><rect x="13" y="26" width="1" height="1" fill="#1b1420"/><rect x="14" y="26" width="5" height="1" fill="#57a83c"/><rect x="19" y="26" width="1" height="1" fill="#2f6b28"/><rect x="20" y="26" width="2" height="1" fill="#8fd45c"/><rect x="22" y="26" width="1" height="1" fill="#2f6b28"/><rect x="23" y="26" width="4" height="1" fill="#57a83c"/><rect x="27" y="26" width="1" height="1" fill="#2f6b28"/><rect x="28" y="26" width="1" height="1" fill="#1b1420"/><rect x="43" y="26" width="1" height="1" fill="#8fd45c"/><rect x="44" y="26" width="1" height="1" fill="#1b1420"/><rect x="45" y="26" width="3" height="1" fill="#8fd45c"/><rect x="49" y="26" width="1" height="1" fill="#8fd45c"/><rect x="50" y="26" width="1" height="1" fill="#1b1420"/><rect x="53" y="26" width="1" height="1" fill="#8fd45c"/><rect x="54" y="26" width="1" height="1" fill="#1b1420"/><rect x="55" y="26" width="4" height="1" fill="#8fd45c"/><rect x="60" y="26" width="1" height="1" fill="#1b1420"/><rect x="61" y="26" width="1" height="1" fill="#8fd45c"/><rect x="62" y="26" width="1" height="1" fill="#1b1420"/><rect x="69" y="26" width="1" height="1" fill="#8fd45c"/><rect x="70" y="26" width="1" height="1" fill="#1b1420"/><rect x="73" y="26" width="1" height="1" fill="#8fd45c"/><rect x="74" y="26" width="1" height="1" fill="#1b1420"/><rect x="75" y="26" width="1" height="1" fill="#8fd45c"/><rect x="77" y="26" width="1" height="1" fill="#8fd45c"/><rect x="78" y="26" width="1" height="1" fill="#1b1420"/><rect x="13" y="27" width="1" height="1" fill="#1b1420"/><rect x="14" y="27" width="5" height="1" fill="#57a83c"/><rect x="19" y="27" width="1" height="1" fill="#1b1420"/><rect x="20" y="27" width="2" height="1" fill="#57a83c"/><rect x="22" y="27" width="1" height="1" fill="#1b1420"/><rect x="23" y="27" width="4" height="1" fill="#57a83c"/><rect x="27" y="27" width="1" height="1" fill="#2f6b28"/><rect x="28" y="27" width="1" height="1" fill="#1b1420"/><rect x="43" y="27" width="1" height="1" fill="#8fd45c"/><rect x="44" y="27" width="1" height="1" fill="#1b1420"/><rect x="46" y="27" width="1" height="1" fill="#1b1420"/><rect x="47" y="27" width="1" height="1" fill="#8fd45c"/><rect x="48" y="27" width="1" height="1" fill="#1b1420"/><rect x="49" y="27" width="1" height="1" fill="#8fd45c"/><rect x="50" y="27" width="1" height="1" fill="#1b1420"/><rect x="53" y="27" width="1" height="1" fill="#8fd45c"/><rect x="54" y="27" width="1" height="1" fill="#1b1420"/><rect x="55" y="27" width="1" height="1" fill="#8fd45c"/><rect x="56" y="27" width="3" height="1" fill="#1b1420"/><rect x="59" y="27" width="1" height="1" fill="#8fd45c"/><rect x="61" y="27" width="1" height="1" fill="#8fd45c"/><rect x="62" y="27" width="1" height="1" fill="#1b1420"/><rect x="69" y="27" width="1" height="1" fill="#8fd45c"/><rect x="70" y="27" width="1" height="1" fill="#1b1420"/><rect x="73" y="27" width="1" height="1" fill="#8fd45c"/><rect x="74" y="27" width="1" height="1" fill="#1b1420"/><rect x="76" y="27" width="2" height="1" fill="#8fd45c"/><rect x="78" y="27" width="1" height="1" fill="#1b1420"/><rect x="13" y="28" width="1" height="1" fill="#1b1420"/><rect x="14" y="28" width="1" height="1" fill="#57a83c"/><rect x="15" y="28" width="12" height="1" fill="#1b1420"/><rect x="27" y="28" width="1" height="1" fill="#2f6b28"/><rect x="28" y="28" width="1" height="1" fill="#1b1420"/><rect x="43" y="28" width="1" height="1" fill="#8fd45c"/><rect x="44" y="28" width="1" height="1" fill="#1b1420"/><rect x="47" y="28" width="1" height="1" fill="#8fd45c"/><rect x="48" y="28" width="1" height="1" fill="#1b1420"/><rect x="49" y="28" width="1" height="1" fill="#8fd45c"/><rect x="50" y="28" width="1" height="1" fill="#1b1420"/><rect x="53" y="28" width="1" height="1" fill="#8fd45c"/><rect x="54" y="28" width="1" height="1" fill="#1b1420"/><rect x="55" y="28" width="1" height="1" fill="#8fd45c"/><rect x="56" y="28" width="1" height="1" fill="#1b1420"/><rect x="59" y="28" width="1" height="1" fill="#8fd45c"/><rect x="60" y="28" width="1" height="1" fill="#1b1420"/><rect x="61" y="28" width="1" height="1" fill="#8fd45c"/><rect x="62" y="28" width="1" height="1" fill="#1b1420"/><rect x="69" y="28" width="1" height="1" fill="#8fd45c"/><rect x="70" y="28" width="1" height="1" fill="#1b1420"/><rect x="73" y="28" width="1" height="1" fill="#8fd45c"/><rect x="74" y="28" width="1" height="1" fill="#1b1420"/><rect x="76" y="28" width="2" height="1" fill="#8fd45c"/><rect x="78" y="28" width="1" height="1" fill="#1b1420"/><rect x="13" y="29" width="1" height="1" fill="#1b1420"/><rect x="14" y="29" width="1" height="1" fill="#57a83c"/><rect x="15" y="29" width="1" height="1" fill="#1b1420"/><rect x="16" y="29" width="2" height="1" fill="#6d1230"/><rect x="18" y="29" width="2" height="1" fill="#fdf6e3"/><rect x="20" y="29" width="4" height="1" fill="#6d1230"/><rect x="24" y="29" width="2" height="1" fill="#fdf6e3"/><rect x="26" y="29" width="1" height="1" fill="#6d1230"/><rect x="27" y="29" width="2" height="1" fill="#1b1420"/><rect x="44" y="29" width="3" height="1" fill="#8fd45c"/><rect x="48" y="29" width="1" height="1" fill="#1b1420"/><rect x="50" y="29" width="3" height="1" fill="#8fd45c"/><rect x="54" y="29" width="1" height="1" fill="#1b1420"/><rect x="55" y="29" width="4" height="1" fill="#8fd45c"/><rect x="60" y="29" width="1" height="1" fill="#1b1420"/><rect x="61" y="29" width="5" height="1" fill="#8fd45c"/><rect x="67" y="29" width="5" height="1" fill="#8fd45c"/><rect x="73" y="29" width="1" height="1" fill="#8fd45c"/><rect x="74" y="29" width="1" height="1" fill="#1b1420"/><rect x="77" y="29" width="1" height="1" fill="#8fd45c"/><rect x="78" y="29" width="1" height="1" fill="#1b1420"/><rect x="14" y="30" width="1" height="1" fill="#1b1420"/><rect x="15" y="30" width="1" height="1" fill="#57a83c"/><rect x="16" y="30" width="1" height="1" fill="#1b1420"/><rect x="17" y="30" width="4" height="1" fill="#6d1230"/><rect x="21" y="30" width="2" height="1" fill="#fdf6e3"/><rect x="23" y="30" width="4" height="1" fill="#6d1230"/><rect x="27" y="30" width="2" height="1" fill="#1b1420"/><rect x="45" y="30" width="3" height="1" fill="#1b1420"/><rect x="51" y="30" width="3" height="1" fill="#1b1420"/><rect x="56" y="30" width="4" height="1" fill="#1b1420"/><rect x="62" y="30" width="5" height="1" fill="#1b1420"/><rect x="68" y="30" width="5" height="1" fill="#1b1420"/><rect x="74" y="30" width="1" height="1" fill="#1b1420"/><rect x="78" y="30" width="1" height="1" fill="#1b1420"/><rect x="15" y="31" width="1" height="1" fill="#1b1420"/><rect x="16" y="31" width="1" height="1" fill="#57a83c"/><rect x="17" y="31" width="8" height="1" fill="#1b1420"/><rect x="25" y="31" width="1" height="1" fill="#57a83c"/><rect x="26" y="31" width="1" height="1" fill="#2f6b28"/><rect x="27" y="31" width="1" height="1" fill="#1b1420"/><rect x="16" y="32" width="1" height="1" fill="#1b1420"/><rect x="17" y="32" width="8" height="1" fill="#57a83c"/><rect x="25" y="32" width="1" height="1" fill="#2f6b28"/><rect x="26" y="32" width="1" height="1" fill="#1b1420"/><rect x="17" y="33" width="8" height="1" fill="#1b1420"/><rect x="9" y="34" width="1" height="1" fill="#1b1420"/><rect x="10" y="34" width="9" height="1" fill="#7d5fd6"/><rect x="19" y="34" width="4" height="1" fill="#1b1420"/><rect x="23" y="34" width="9" height="1" fill="#7d5fd6"/><rect x="32" y="34" width="1" height="1" fill="#1b1420"/><rect x="8" y="35" width="1" height="1" fill="#1b1420"/><rect x="9" y="35" width="10" height="1" fill="#5b3fa8"/><rect x="19" y="35" width="1" height="1" fill="#1b1420"/><rect x="20" y="35" width="1" height="1" fill="#ffe79a"/><rect x="21" y="35" width="1" height="1" fill="#ffc23c"/><rect x="22" y="35" width="1" height="1" fill="#1b1420"/><rect x="23" y="35" width="10" height="1" fill="#5b3fa8"/><rect x="33" y="35" width="1" height="1" fill="#1b1420"/><rect x="8" y="36" width="1" height="1" fill="#1b1420"/><rect x="9" y="36" width="10" height="1" fill="#3b2a63"/><rect x="19" y="36" width="1" height="1" fill="#1b1420"/><rect x="20" y="36" width="2" height="1" fill="#ffc23c"/><rect x="22" y="36" width="1" height="1" fill="#1b1420"/><rect x="23" y="36" width="10" height="1" fill="#3b2a63"/><rect x="33" y="36" width="1" height="1" fill="#1b1420"/></svg>